<?xml version="1.0" encoding="utf-8"?>
<!-- Generator: Adobe Illustrator 19.2.0, SVG Export Plug-In . SVG Version: 6.00 Build 0)  -->
<svg version="1.1" id="Слой_1" xmlns="http://www.w3.org/2000/svg" xmlns:xlink="http://www.w3.org/1999/xlink" x="0px" y="0px"
	 viewBox="0 0 40 28.2" style="enable-background:new 0 0 40 28.2;" xml:space="preserve">
<path d="M38.2,0H1.8C0.8,0,0,0.8,0,1.8c0,1,0.8,1.8,1.8,1.8h36.4c1,0,1.8-0.8,1.8-1.8C40,0.8,39.2,0,38.2,0z"/>
<path d="M38.2,12.4H1.8c-1,0-1.8,0.8-1.8,1.8c0,1,0.8,1.8,1.8,1.8h36.4c1,0,1.8-0.8,1.8-1.8C40,13.2,39.2,12.4,38.2,12.4z"/>
<path d="M38.2,24.8H1.8c-1,0-1.8,0.8-1.8,1.8c0,1,0.8,1.8,1.8,1.8h36.4c1,0,1.8-0.8,1.8-1.8C40,25.5,39.2,24.8,38.2,24.8z"/>
</svg>
