<?xml version="1.0" encoding="utf-8"?>
<!-- Generator: Adobe Illustrator 19.2.0, SVG Export Plug-In . SVG Version: 6.00 Build 0)  -->
<svg version="1.1" id="Слой_1" xmlns="http://www.w3.org/2000/svg" xmlns:xlink="http://www.w3.org/1999/xlink" x="0px" y="0px"
	 viewBox="0 0 40 40" style="enable-background:new 0 0 40 40;" xml:space="preserve">
<g>
	<path class="st0" d="M18,14.7L18,14.7L18,14.7z"/>
	<path class="st0" d="M17.5,18L17.5,18L17.5,18z"/>
	<g>
		<path class="st1" d="M34.4,6.2c0,0-0.1-0.1-0.2-0.1c-0.1,0-0.1,0-0.2,0.1c-0.9,1.2-2.1,2.1-3.3,2.9c-2.5,1.6-5.3,2.4-8.2,2.4
			c-5.5,0-8.6-2.7-11.1-4.6c0,0-0.1-0.1-0.1-0.2c0-0.1,0-0.1,0.1-0.2c3.9-3,7.2-4.9,10.4-6c0.1,0,0.2-0.1,0.1-0.2
			c0-0.1-0.1-0.2-0.2-0.2C21.2,0,20.6,0,20,0C9,0,0,9,0,20c0,6.1,2.7,11.5,7,15.2c0.1,0,0.2,0,0.2,0c0.1,0,0.1-0.1,0.2-0.2l0.8-2.6
			c0-0.1,0.2-0.2,0.2-0.2c10.7,2.3,15.3-3.5,14.5-7c-0.7-3-5.6-5.8-13-1.6c-0.1,0-0.2,0-0.2,0l0,0h0c-0.1,0-0.1-0.1-0.1-0.2
			l2.5-12.7l0,0c0-0.1,0-0.1,0.1-0.2c0.1,0,0.1,0,0.2,0c0.7,0.5,2.8,1.8,5.1,3.1c0.1,0,0.1,0.1,0.1,0.2c-0.1,0.5-0.4,2.6-0.5,3.4
			c0,0.1,0,0.2,0.1,0.2c0,0,0.1,0.1,0.2,0c12.3-3.3,14.8,4.4,14.5,8.1c-0.7,8.4-9.9,12.8-18.1,12.9c-0.1,0-0.2,0.1-0.2,0.2
			c0,0.1,0,0.2,0.2,0.2c2,0.7,4.1,1,6.3,1c11,0,20-8.9,20-20C40,14.6,37.9,9.8,34.4,6.2L34.4,6.2z"/>
		<path d="M14.9,6.7c6.6,5,16.3,2.5,19.5-5.3l0,0C28.4,4.3,21.8,6.1,14.9,6.7L14.9,6.7L14.9,6.7z"/>
		<path d="M14.9,6.7c6.9-0.6,13.5-2.4,19.5-5.3C27.7,0.7,20.7,2.4,14.9,6.7L14.9,6.7z"/>
	</g>
</g>
</svg>
