<?xml version="1.0" encoding="utf-8"?>
<!-- Generator: Adobe Illustrator 19.2.0, SVG Export Plug-In . SVG Version: 6.00 Build 0)  -->
<svg version="1.1" id="Слой_1" xmlns="http://www.w3.org/2000/svg" xmlns:xlink="http://www.w3.org/1999/xlink" x="0px" y="0px"
	 viewBox="0 0 114 114" style="enable-background:new 0 0 114 114;" xml:space="preserve">
<style type="text/css">
	.logo-five-st0{fill:#FFFFFF;}
	.logo-five-st1{fill:#E00D1D;}
	.logo-five-st2{fill:#97BF16;}
	.logo-five-st3{fill:#13A130;}
</style>
<g>
	<path class="logo-five-st0" d="M51.2,41.9L51.2,41.9L51.2,41.9z"/>
	<path class="logo-five-st0" d="M49.8,51.3L49.8,51.3L49.8,51.3z"/>
	<path class="logo-five-st0" d="M96.2,15.6c0.5-1.2,0.5-1.2,3.4-8.1c-6.9-0.8-10.7-1.4-16.8-1.3C75.1,2.2,66.3,0,57,0C25.5,0,0,25.5,0,57
		s25.5,57,57,57s57-25.5,57-57C114,40.7,107.2,26,96.2,15.6L96.2,15.6z"/>
	<path class="logo-five-st1" d="M92.1,23.5c-0.1-0.1-0.3-0.2-0.4-0.2c-0.2,0-0.3,0.1-0.4,0.2c-2.3,2.8-5,5.2-8.1,7.1c-6,3.8-12.8,5.9-19.9,5.9
		c-13.4,0-20.9-6.5-27.1-11.3c-0.1-0.1-0.2-0.3-0.2-0.4c0-0.2,0.1-0.3,0.2-0.4c9.5-7.2,17.4-11.9,25.3-14.7c0.2-0.1,0.4-0.3,0.3-0.6
		c0-0.2-0.2-0.4-0.5-0.5c-1.4-0.1-2.8-0.2-4.3-0.2C30.2,8.5,8.5,30.2,8.5,57c0,14.8,6.6,28,17,36.9C25.7,94,25.9,94,26,94
		c0.2,0,0.3-0.2,0.4-0.4l2-6.3c0.1-0.3,0.4-0.4,0.6-0.4c25.9,5.7,37.1-8.4,35.2-17.1c-1.6-7.4-13.7-14-31.6-4
		c-0.2,0.1-0.4,0.1-0.6,0l0,0h-0.1c-0.2-0.1-0.2-0.3-0.2-0.5l6.1-30.8l0,0c0-0.2,0.1-0.3,0.3-0.4c0.2-0.1,0.3-0.1,0.5,0
		c1.8,1.1,6.8,4.3,12.3,7.6c0.2,0.1,0.3,0.3,0.3,0.5c-0.2,1.3-0.9,6.2-1.2,8.2c0,0.2,0,0.4,0.2,0.5c0.1,0.1,0.3,0.2,0.5,0.1
		c29.8-8,36,10.7,35.3,19.7c-1.7,20.3-24,31-44,31.3c-0.3,0-0.5,0.2-0.5,0.4c0,0.3,0.1,0.5,0.4,0.6c4.8,1.6,9.9,2.4,15.2,2.4
		c26.8,0,48.5-21.7,48.5-48.5C105.5,44,100.4,32.2,92.1,23.5L92.1,23.5z"/>
	<path class="logo-five-st2" d="M44.5,24.8C60.6,37,84.2,30.8,92,11.9l0,0C77.4,18.9,61.3,23.3,44.5,24.8L44.5,24.8L44.5,24.8z"/>
	<path class="logo-five-st3" d="M44.5,24.8c16.8-1.5,32.9-5.9,47.5-12.9C75.6,10,58.6,14.2,44.5,24.8L44.5,24.8z"/>
</g>
</svg>
