<?xml version="1.0" encoding="utf-8"?>
<!-- Generator: Adobe Illustrator 19.2.0, SVG Export Plug-In . SVG Version: 6.00 Build 0)  -->
<svg version="1.1" id="Слой_2" xmlns="http://www.w3.org/2000/svg" xmlns:xlink="http://www.w3.org/1999/xlink" x="0px" y="0px"
	 viewBox="0 0 40 40" style="enable-background:new 0 0 40 40;" xml:space="preserve">
<path d="M24,19.9c-0.1-2.6-2-4.1-4.3-4.1h-0.1c-2.7,0-4.1,2.1-4.1,4.5c0,2.7,1.8,4.3,4.1,4.3c2.6,0,4.3-1.9,4.4-4.2V19.9L24,19.9z
	 M19.6,13.5c1.8,0,3.4,0.8,4.7,2l0,0c0-0.6,0.4-1,0.9-1h0.1c0.9,0,1,0.8,1,1.1v9.2c-0.1,0.6,0.6,0.9,1,0.5c1.5-1.5,3.2-7.8-0.9-11.4
	c-3.9-3.4-9.1-2.8-11.8-0.9c-2.9,2-4.8,6.5-3,10.7c2,4.6,7.7,6,11.1,4.6c1.7-0.7,2.5,1.6,0.7,2.4c-2.7,1.1-10.2,1-13.7-5
	c-2.4-4.1-2.2-11.3,4-15c4.8-2.9,11.1-2.1,14.9,1.9c4,4.2,3.7,11.9-0.1,15c-1.8,1.4-4.4,0-4.4-2v-0.7c-1.2,1.2-2.9,1.9-4.6,1.9
	c-3.5,0-6.6-3.1-6.6-6.6C13,16.6,16.1,13.5,19.6,13.5"/>
</svg>
