<?xml version="1.0" encoding="utf-8"?>
<!-- Generator: Adobe Illustrator 19.2.0, SVG Export Plug-In . SVG Version: 6.00 Build 0)  -->
<svg version="1.1" id="Слой_1" xmlns="http://www.w3.org/2000/svg" xmlns:xlink="http://www.w3.org/1999/xlink" x="0px" y="0px"
	 viewBox="0 0 406.2 81.1" style="enable-background:new 0 0 406.2 81.1;" xml:space="preserve">
<g>
	<path d="M77.3,39.2c0,4.4,3.1,7.3,6.3,7.6v0.1c-1.2,0.5-2.6,2-4.1,3.7c-2.6,3.3-4.4,5.4-6.1,5.4c-0.3,0-0.6,0.2-0.6,0.5L72,62.4
		c0,0.2,0,0.5,0.2,0.7s0.4,0.3,0.7,0.3h3c4.8,0,6.6-1.9,11.3-7.9c3.7-4.8,5-6.3,7.3-6.3h1.6l-2.3,13.2c0,0.3,0,0.5,0.2,0.7
		s0.4,0.3,0.7,0.3h8.2c0.4,0,0.8-0.3,0.9-0.7l6.3-35.5c0-0.3,0-0.5-0.2-0.7s-0.4-0.3-0.7-0.3H95C84.3,26.3,77.3,30.8,77.3,39.2
		L77.3,39.2z M97.2,42.5H92c-3.2,0-4.7-1.1-4.7-3.3c0-3.7,2.3-5.5,6.7-5.5h4.8L97.2,42.5L97.2,42.5z M162.4,25.3
		c-6.3,0-10.2,4.1-13.3,9H149c0-5.1-2.1-9-7.9-9c-6.9,0-10.6,5.2-13.1,9.5h-0.1c0.4-1.6,0.9-3.9,1.2-5.9c0.1-0.7-0.1-1.3-0.5-1.8
		s-1-0.8-1.7-0.8h-7l-6.3,34.8c-0.1,0.6,0.1,1.2,0.5,1.7s1,0.7,1.6,0.7h7.4l0.5-3.1c3.7-20.7,8.7-26.5,12.7-26.5
		c2.9,0,3.2,2.8,2.5,6.4L135,60.7c-0.1,0.7,0.1,1.4,0.5,1.9s1.1,0.8,1.8,0.8h7.2l0.5-3.1c3.6-20.6,8.6-26.5,12.8-26.5
		c2.8,0,3.1,2.5,2.4,6.4L156.4,61c-0.1,0.6,0,1.1,0.4,1.6s0.9,0.7,1.5,0.7h7.5l4.2-23.6c0.4-1.9,0.5-3.6,0.5-5.1
		C170.5,28.4,167.5,25.3,162.4,25.3L162.4,25.3z M237.2,25.3c-6.5,0-9.9,4.4-13,9.7h-0.1c0.4-1.4,0.7-2.6,0.9-3.9
		c0.3-1.2,0-2.4-0.8-3.3c-0.8-0.9-1.9-1.5-3.1-1.5h-4.8l-9.8,53.9h5.6c2.5,0,4.6-1.8,5.1-4.2l2.2-12.1c0.8,0.2,2.4,0.5,5.2,0.5
		c12.9,0,22.2-10.5,22.2-26.5C246.8,30.3,243.1,25.3,237.2,25.3L237.2,25.3z M224.6,57.1c-2.1,0-3.2-0.3-3.8-0.5l0.4-2.1
		c2.8-13.7,7.6-20.7,12-20.7c2.4,0,3.4,2.2,3.4,5.6C236.5,50.5,231.1,57.1,224.6,57.1L224.6,57.1z M271.5,25.3
		c-12,0-21,10.7-21,23.6c0,8.5,5.3,15.5,14.9,15.5c12.4,0,20.9-10.2,20.9-23.6C286.3,31.9,280.9,25.3,271.5,25.3L271.5,25.3z
		 M266.3,56.8c-3.8,0-5.7-3.2-5.7-8.1c0-6.9,3.9-15.8,10.2-15.8c3.8,0,5.7,2.9,5.7,8C276.3,47.8,272.8,56.8,266.3,56.8L266.3,56.8z
		 M316,28.6c-1.5,9.5-6.4,15.8-11.1,15.8c-2.4,0-3.3-1.8-2.5-5.9l1.2-7.3c0.2-1.2-0.1-2.4-0.9-3.4c-0.8-0.9-1.9-1.5-3.2-1.5h-5
		l-2.3,12.6c-0.3,1.7-0.5,3.2-0.5,4.6c0,6.2,3,9.6,8.2,9.6c6.6,0,10.9-4.4,13.7-9h0.2c-1.2,5.7-2.5,14.1-3.1,19.4h9.6
		c0.2-2.7,0.8-8.9,2.6-19.1l3.3-18.1h-9.8L316,28.6L316,28.6z M356.4,48.9c-1.1-2.2-2.1-3.6-3.2-4.7l16.3-17.9h-8.9
		c-1.5,0-3,0.7-4,1.8l-11.5,13.2H343l2.2-12.2c0.1-0.7-0.1-1.4-0.5-2c-0.5-0.6-1.2-0.9-1.9-0.9h-7.1L329,63.5h7.2
		c1.6,0,3-1.2,3.3-2.8l2.3-12.6h1.1c2.2,0,3.5,2.4,5.9,7.3c2.7,5.8,4,8,8.9,8h3.9L363,56h-0.8C360.1,56.1,358.7,53.8,356.4,48.9
		L356.4,48.9z M369.4,52.2c0,7.7,3.9,12.2,9.6,12.2c6,0,9.7-4.5,12.6-9.9h0.1c-0.4,1.6-0.7,3.6-0.9,5.6c-0.1,0.9,0.2,1.7,0.8,2.4
		c0.6,0.6,1.4,1,2.3,1h6.4c0.1-2.8,0.5-8.9,2.4-19.1l3.1-17c-1.8-0.8-6.3-2.1-13-2.1C379,25.3,369.4,36.2,369.4,52.2L369.4,52.2z
		 M394.6,35.2c-2.5,13.9-7.4,20.7-11.5,20.7c-2.4,0-3.4-1.8-3.4-5.3c0-10.5,5.5-17.8,11.6-17.8c1.4,0,2.8,0.2,3.6,0.5L394.6,35.2
		L394.6,35.2z M207.8,34.9c0-6.1-4.3-9.6-11.4-9.6c-11.9,0-21.4,10.3-21.4,24.2c0,8.8,4.9,14.9,14.3,14.9c7.3,0,12-2.9,15-5.4
		l-3.9-6.6c-2.4,2-5.6,3.9-9.5,3.9c-4.1,0-5.7-2.5-5.9-6.8C197.4,48.2,207.8,44,207.8,34.9L207.8,34.9z M185.5,43.3
		c1.3-5.4,4.5-10.2,9.2-10.2c2.4,0,3.5,1,3.5,3.1C198.2,40,193.1,42.5,185.5,43.3L185.5,43.3z"/>
	<path d="M199.2,9.1l-3.4-0.5c-0.7-0.1-1.8-0.3-2.1,1.2l-1.2,4.3c-0.2,1,0,1.6,1.2,1.8l3.6,0.5c1,0.1,1.8,0.3,2.1-1.3l1.1-4.1
		C200.8,9.6,200.4,9.3,199.2,9.1L199.2,9.1z M209.1,11l-3-0.5c-0.7-0.1-1.7-0.3-2.1,1.2l-1.2,4.1c-0.2,1,0,1.5,1.1,1.7l3.2,0.6
		c0.9,0.1,1.7,0.2,2.1-1.2l1.1-4C210.6,11.5,210.2,11.2,209.1,11L209.1,11z M82.9,0.1c-39,1-71.8,8.7-80.6,11
		c-0.7,0.2-1.2,0.7-1.3,1.4l-1,5c0,0.3,0,0.5,0.2,0.7s0.4,0.3,0.7,0.2c7.1-1.6,16.9-3.2,29.9-4.9l-8.7,48.2
		c-0.2,0.8-0.2,1.8,1.3,1.8h8.4c0.6,0,1.3-0.1,1.4-1.5l8.2-46.9c0-0.1,0.6-2.6,3.3-3.2l0,0c3.5-0.4,9.6-0.7,13.3-1.1l-9,51
		c-0.3,1.7,0.6,1.7,1.2,1.7H59c0.7,0,1.7-0.1,2-1.8l8.5-48.8l0,0c0,0,0.5-2.5,3.3-3.2c4.2-0.3,7-0.5,11.3-0.7
		c39.5-1.6,102.1,5.7,102.1,5.7c0.8,0.1,1.5-0.2,1.7-0.9l0.6-2l0,0l1.1-3.4c0.1-0.2,0-0.4-0.1-0.6s-0.3-0.3-0.5-0.3
		C181.4,6.5,124.4-1,82.9,0.1L82.9,0.1z"/>
</g>
</svg>
