<?xml version="1.0" encoding="utf-8"?>
<!-- Generator: Adobe Illustrator 19.2.0, SVG Export Plug-In . SVG Version: 6.00 Build 0)  -->
<svg version="1.1" id="Слой_1" xmlns="http://www.w3.org/2000/svg" xmlns:xlink="http://www.w3.org/1999/xlink" x="0px" y="0px"
	 viewBox="0 0 24.4 40" style="enable-background:new 0 0 24.4 40;" xml:space="preserve">
<style type="text/css">
	.st0{fill:#E2AC6E;}
	.st1{fill:#DE9A59;}
	.st2{fill:#CCCCCC;}
	.st3{fill:#E7E7E7;}
</style>
<g>
	<g>
		<ellipse class="st0" cx="12.2" cy="13.9" rx="11.2" ry="13.9"/>
		<path class="st1" d="M23.3,12.3c1.4,14.3-11.1,15.5-11.1,15.5V0C12.2,0,22.1,0,23.3,12.3z"/>
	</g>
	<rect x="9.6" y="28.2" class="st2" width="5.1" height="6.7"/>
	<g>
		<path class="st3" d="M24.4,19.1c-0.7,5.6-5.9,9.9-12.2,9.9C5.9,29,0.6,24.6,0,18.9L24.4,19.1z"/>
		<path class="st2" d="M24.4,19C22.6,29.5,12.2,29,12.2,29l0-10L24.4,19z"/>
	</g>
	<path class="st3" d="M17.8,40H6.6c-1.1,0-2-0.9-2-2v-1.4c0-1.1,0.9-2,2-2h11.3c1.1,0,2,0.9,2,2V38C19.8,39.1,18.9,40,17.8,40z"/>
	<g>
		<path class="st2" d="M17.1,40h-4.9v-5.5h4.9c1.5,0,2.7,1.2,2.7,2.7v0C19.8,38.8,18.6,40,17.1,40z"/>
	</g>
</g>
</svg>
