<?xml version="1.0" encoding="utf-8"?>
<!-- Generator: Adobe Illustrator 19.2.0, SVG Export Plug-In . SVG Version: 6.00 Build 0)  -->
<svg version="1.1" id="Слой_1" xmlns="http://www.w3.org/2000/svg" xmlns:xlink="http://www.w3.org/1999/xlink" x="0px" y="0px"
	 viewBox="0 0 40 26.3" style="enable-background:new 0 0 40 26.3;" xml:space="preserve">
<style type="text/css">
	.st0{fill:#E4C664;}
	.st1{fill:#E0B74B;}
	.st2{fill:#39A243;}
	.st3{fill:#2D8C32;}
	.st4{fill:#735C0E;}
	.st5{fill:#5A440B;}
</style>
<g>
	<g>
		<path class="st0" d="M31.2,26.3H8.9c-3.4,0-6.3-2.8-6.3-6.3v0c0-2.7,34.9-2.7,34.9,0v0C37.5,23.5,34.7,26.3,31.2,26.3z"/>
		<path class="st1" d="M31.1,26.3H19.7l0-8.3c0,0,0.2,0,0.2,0c8.8,0,17.6,0.7,17.6,2v0C37.5,23.5,34.6,26.3,31.1,26.3z"/>
	</g>
	<g>
		<path class="st0" d="M32.2,1.8C28.9,0.3,22.4,0,20.1,0c-2.6,0-8.5,0-12.7,1.9C4,3.5,2.6,8.2,2.6,11.7c0,0,0,0,0,0
			c0,0.9,8.7,1.3,17.4,1.3c8.7,0,17.4-0.4,17.4-1.3v0C37.5,8.2,35.5,3.4,32.2,1.8z"/>
		<path class="st1" d="M32.1,1.8C28.7,0.3,19.7,0,19.7,0l0,13.1c0,0,17.8-0.4,17.8-1.3v0C37.5,8.2,35.4,3.4,32.1,1.8z"/>
	</g>
	<g>
		<rect x="2.6" y="15.7" class="st2" width="35" height="5.1"/>
		<rect x="19.7" y="15.7" class="st3" width="17.8" height="5.1"/>
	</g>
	<g>
		<path class="st4" d="M38.1,16.2H1.9c-1,0-1.9-0.8-1.9-1.9v-1c0-1,0.8-1.9,1.9-1.9h36.3c1,0,1.9,0.8,1.9,1.9v1
			C40,15.4,39.2,16.2,38.1,16.2z"/>
		<path class="st5" d="M37.7,16.2h-18v-4.7h18c1.3,0,2.4,1.1,2.4,2.3v0C40.1,15.2,39,16.2,37.7,16.2z"/>
	</g>
</g>
</svg>
